<?xml version="1.0"?>
<svg version="1.1" xmlns="http://www.w3.org/2000/svg" width="215" height="54" style=""><path fill="#e36014" d="M21.89,24.27l2.73,0c3.38,0,5.72,1.43,5.72,4.498c0,2.262-1.066,3.64-3.12,4.29c2.444,0.702,3.718,2.158,3.718,4.16c0,3.822-2.548,5.382-6.76,5.382l-8.268,0l0-2.21l1.95-0.78l0-12.22l-1.95-0.78l0-2.21z M21.89,31.758l1.508,0c1.898,0,2.912-0.806,2.912-2.418c0-1.352-0.962-1.95-2.21-1.95l-2.21,0l0,4.368z M21.89,39.48l2.158,0c1.82,0,2.782-0.832,2.782-2.262c0-1.898-1.092-2.73-3.432-2.73l-1.508,0l0,4.992z M47.51326,36.438l-8.632,0c0.156,2.08,1.352,3.302,3.146,3.302c2.158,0,4.368-1.222,4.368-1.222l1.118,2.158s-2.6,2.184-5.928,2.184c-4.472,0-6.76-2.6-6.76-7.02c0-4.55,2.574-7.54,6.942-7.54c3.874,0,5.902,2.392,5.902,6.11c0,0.988-0.156,1.95-0.156,2.028z M38.93326,34.02l4.706,0c0-1.482-0.624-2.6-2.132-2.6c-1.456,0-2.366,1.066-2.574,2.6z M56.75652,28.56l0.234,1.794s1.872-2.054,3.614-2.054c1.43,0,2.418,0.468,2.418,0.468l-0.208,4.992l-2.34,0l-0.39-2.21c-1.508,0-2.808,1.456-2.808,1.456l0,6.864l2.6,0.65l0,2.08l-8.58,0l0-2.08l2.08-0.65l0-8.45l-2.08-0.65l0-2.08z M70.93978,40.26l3.848,0c3.302,0,5.2,1.43,5.2,4.03c0,2.86-2.288,4.94-7.28,4.94c-4.082,0-6.708-0.91-6.708-3.77c0-2.236,2.73-3.12,2.73-3.12s-1.56-0.234-1.56-1.716c0-0.754,1.04-2.444,1.352-2.938c-0.624-0.416-2.002-1.534-2.002-4.056c0-3.562,2.678-5.33,6.24-5.33c1.508,0,2.574,0.39,3.068,0.624l4.472-0.104l0,2.08l-2.132,0.364c0.052,0.234,0.442,0.936,0.442,2.054c0,3.77-2.652,5.33-6.24,5.33c-0.702,0-1.222-0.13-1.326-0.13z M72.62978,30.978c-1.56,0-2.21,0.832-2.21,2.47c0,1.56,0.598,2.6,2.08,2.6c1.638,0,2.21-0.858,2.21-2.6c0-1.638-0.65-2.47-2.08-2.47z M73.74778,43.12l-2.73,0s-1.248,0.572-1.248,1.69c0,1.3,1.118,1.56,3.25,1.56c2.34,0,3.328-0.52,3.328-1.768c0-1.17-0.858-1.482-2.6-1.482z M90.55704,28.3c4.212,0,6.552,2.548,6.552,7.02c0,4.68-2.73,7.54-6.942,7.54c-4.238,0-6.63-2.21-6.63-7.15c0-4.68,2.782-7.41,7.02-7.41z M90.42704,31.42c-1.898,0-2.86,1.04-2.86,4.16c0,2.86,0.832,4.16,2.73,4.16c1.872,0,2.782-1.17,2.782-4.29c0-2.652-0.78-4.03-2.652-4.03z M108.65356,42.6l0-2.21l1.95-0.78l0-12.22l-1.95-0.78l0-2.21l5.98-0.13l1.976,0c4.264,0,6.76,1.768,6.76,5.304c0,2.444-1.17,4.03-2.938,4.914c0.286,0.338,0.676,0.832,1.092,1.69l1.742,3.562l1.768,0.65l0,2.21l-4.81,0l-2.184-4.81c-0.884-1.976-1.118-2.392-2.496-2.392l-0.91,0l0,4.212l1.872,0.78l0,2.21l-7.852,0z M114.63356,32.668l1.482,0c2.054,0,3.25-0.988,3.25-2.73c0-1.482-0.988-2.548-2.6-2.548l-2.132,0l0,5.278z M135.03082,28.3c4.212,0,6.552,2.548,6.552,7.02c0,4.68-2.73,7.54-6.942,7.54c-4.238,0-6.63-2.21-6.63-7.15c0-4.68,2.782-7.41,7.02-7.41z M134.90082,31.42c-1.898,0-2.86,1.04-2.86,4.16c0,2.86,0.832,4.16,2.73,4.16c1.872,0,2.782-1.17,2.782-4.29c0-2.652-0.78-4.03-2.652-4.03z M152.23008,28.3c4.212,0,6.552,2.548,6.552,7.02c0,4.68-2.73,7.54-6.942,7.54c-4.238,0-6.63-2.21-6.63-7.15c0-4.68,2.782-7.41,7.02-7.41z M152.10008,31.42c-1.898,0-2.86,1.04-2.86,4.16c0,2.86,0.832,4.16,2.73,4.16c1.872,0,2.782-1.17,2.782-4.29c0-2.652-0.78-4.03-2.652-4.03z M186.66734,40.52l0,2.08l-7.046,0l0-2.08l1.378-0.65l0-6.188c0-1.43-0.416-2.132-1.508-2.132c-1.69,0-2.886,1.352-2.886,1.352l0,6.968l1.352,0.65l0,2.08l-6.604,0l0-2.08l1.352-0.65l0-6.188c0-1.43-0.364-2.132-1.482-2.132c-1.69,0-2.912,1.352-2.912,1.352l0,6.968l1.378,0.65l0,2.08l-7.28,0l0-2.08l2.002-0.65l0-8.45l-1.976-0.65l0-2.08l5.434-0.13l0.182,1.846s2.262-2.106,4.55-2.106c1.846,0,2.99,0.858,3.588,2.236c0.442-0.442,2.392-2.236,4.706-2.236c2.73,0,4.004,1.768,4.004,4.68l0,6.89z M192.4526,38.05l0.208,1.69s0.91,0.26,2.184,0.26c1.43,0,2.132-0.442,2.132-1.274c0-2.132-6.942-1.352-6.942-5.98c0-3.25,2.6-4.446,5.356-4.446c2.34,0,4.836,0.78,4.836,0.78l-0.104,3.9l-2.21,0l-0.39-1.56s-0.754-0.26-1.794-0.26c-1.118,0-1.794,0.468-1.794,1.326c0,2.106,6.942,1.196,6.942,5.694c0,2.99-2.418,4.68-5.98,4.68c-2.47,0-4.784-0.572-4.784-0.572l0-4.238l2.34,0z"/><path fill="#" d=""/></svg>
